<svg xmlns="http://www.w3.org/2000/svg" viewBox="0 0 32 32" id="book">
  <path d="M27,6.77V5a3.0088,3.0088,0,0,0-3-3H7A3.0088,3.0088,0,0,0,4,5V27a3.0088,3.0088,0,0,0,3,3H25a3.0088,3.0088,0,0,0,3-3V9A2.9913,2.9913,0,0,0,27,6.77ZM7,4H24a1.003,1.003,0,0,1,1,1V6H7A1,1,0,0,1,7,4ZM26,27a1.003,1.003,0,0,1-1,1H10V8h8v6a0.9954,0.9954,0,0,0,1.45.89L21,14.12l1.55,0.77A1.03,1.03,0,0,0,23,15a1.0136,1.0136,0,0,0,.53-0.15A0.9988,0.9988,0,0,0,24,14V8h1a1.003,1.003,0,0,1,1,1V27Z"></path>
  <rect width="10" height="2" x="13" y="23"></rect>
  <rect width="10" height="2" x="13" y="19"></rect>
</svg>
