<svg version="1.1" id="Layer_1" xmlns="http://www.w3.org/2000/svg" xmlns:xlink="http://www.w3.org/1999/xlink" x="0px" y="0px"
	 width="100%" viewBox="0 0 81 72" enable-background="new 0 0 81 72" xml:space="preserve">
<path fill="#FFFFFF" opacity="1.000000" stroke="none" 
	d="
M1.000000,39.000000 
	C1.000000,36.958332 1.000000,34.916668 1.290665,32.726051 
	C12.293437,23.645134 23.030640,14.742910 33.690891,5.749475 
	C35.310295,4.383276 36.572552,2.593731 38.000000,1.000000 
	C40.041668,1.000000 42.083332,1.000000 44.275375,1.287788 
	C44.708763,1.983037 44.919930,2.474965 45.285229,2.785686 
	C56.295361,12.150806 67.298515,21.524570 78.384956,30.798727 
	C79.290947,31.556610 80.781219,31.616032 82.000000,32.000000 
	C82.000000,34.041668 82.000000,36.083332 81.617065,38.564655 
	C78.492149,38.724785 75.750168,38.445259 73.000000,38.164898 
	C73.000000,40.543011 73.194298,43.537941 72.963692,46.499786 
	C72.262703,55.503361 75.919022,65.347343 68.000000,73.000000 
	C50.645771,73.000000 33.291542,73.000000 15.757820,72.691696 
	C11.345875,69.472527 9.728984,65.507790 9.925334,60.347656 
	C10.214656,52.744205 10.000000,45.121574 10.000000,38.316410 
	C6.864160,38.554592 3.932080,38.777298 1.000000,39.000000 
M65.993469,31.271196 
	C58.279991,24.296198 50.603863,17.278402 42.769958,10.441392 
	C42.241219,9.979936 40.233814,10.528046 39.403175,11.205901 
	C32.955856,16.467329 26.553267,21.790710 20.320295,27.302387 
	C18.855183,28.597956 17.205070,30.654245 17.147522,32.409977 
	C16.836910,41.886383 16.976488,51.378441 17.015194,60.864880 
	C17.027605,63.906776 18.765905,65.627686 21.688828,65.953232 
	C23.625145,66.168892 25.604950,65.994102 28.000040,65.994102 
	C28.000040,58.924316 28.076349,52.141632 27.973211,45.361679 
	C27.904459,40.842075 29.982224,38.864647 34.456406,38.973499 
	C39.280064,39.090851 44.108788,39.001129 48.935299,38.999733 
	C53.020779,38.998554 55.289314,40.443226 55.079899,45.127357 
	C54.770588,52.045727 54.999996,58.988182 54.999996,65.886169 
	C65.597603,66.197449 66.000038,65.818535 65.999985,56.109497 
	C65.999939,48.120785 65.999733,40.132072 65.993469,31.271196 
M35.721081,65.941200 
	C39.799259,65.941200 43.877438,65.941200 47.807564,65.941200 
	C47.807564,58.977352 47.807564,52.688793 47.807564,46.203350 
	C43.544617,46.203350 39.473576,46.203350 35.054714,46.203350 
	C35.054714,52.669689 35.054714,58.957245 35.721081,65.941200 
z"/>
<path fill="#000000" opacity="1.000000" stroke="none" 
	d="
M82.000000,31.531342 
	C80.781219,31.616032 79.290947,31.556610 78.384956,30.798727 
	C67.298515,21.524570 56.295361,12.150806 45.285229,2.785686 
	C44.919930,2.474965 44.708763,1.983037 44.712875,1.287788 
	C57.253429,1.000000 69.506859,1.000000 82.000000,1.000000 
	C82.000000,11.019623 82.000000,21.041155 82.000000,31.531342 
z"/>
<path fill="#000000" opacity="1.000000" stroke="none" 
	d="
M37.531342,1.000000 
	C36.572552,2.593731 35.310295,4.383276 33.690891,5.749475 
	C23.030640,14.742910 12.293437,23.645134 1.290665,32.288551 
	C1.000000,21.733616 1.000000,11.467231 1.000000,1.000000 
	C13.020149,1.000000 25.041416,1.000000 37.531342,1.000000 
z"/>
<path fill="#000000" opacity="1.000000" stroke="none" 
	d="
M1.000000,39.468658 
	C3.932080,38.777298 6.864160,38.554592 10.000000,38.316410 
	C10.000000,45.121574 10.214656,52.744205 9.925334,60.347656 
	C9.728984,65.507790 11.345875,69.472527 15.289162,72.691696 
	C10.376298,73.000000 5.752595,73.000000 1.000000,73.000000 
	C1.000000,61.979378 1.000000,50.958347 1.000000,39.468658 
z"/>
<path fill="#000000" opacity="1.000000" stroke="none" 
	d="
M68.474129,73.000000 
	C75.919022,65.347343 72.262703,55.503361 72.963692,46.499786 
	C73.194298,43.537941 73.000000,40.543011 73.000000,38.164898 
	C75.750168,38.445259 78.492149,38.724785 81.617065,39.002155 
	C82.000000,50.226379 82.000000,61.452759 82.000000,73.000000 
	C77.654678,73.000000 73.301468,73.000000 68.474129,73.000000 
z"/>
<path fill="#000000" opacity="1.000000" stroke="none" 
	d="
M65.996536,31.707279 
	C65.999733,40.132072 65.999939,48.120785 65.999985,56.109497 
	C66.000038,65.818535 65.597603,66.197449 54.999996,65.886169 
	C54.999996,58.988182 54.770588,52.045727 55.079899,45.127357 
	C55.289314,40.443226 53.020779,38.998554 48.935299,38.999733 
	C44.108788,39.001129 39.280064,39.090851 34.456406,38.973499 
	C29.982224,38.864647 27.904459,40.842075 27.973211,45.361679 
	C28.076349,52.141632 28.000040,58.924316 28.000040,65.994102 
	C25.604950,65.994102 23.625145,66.168892 21.688828,65.953232 
	C18.765905,65.627686 17.027605,63.906776 17.015194,60.864880 
	C16.976488,51.378441 16.836910,41.886383 17.147522,32.409977 
	C17.205070,30.654245 18.855183,28.597956 20.320295,27.302387 
	C26.553267,21.790710 32.955856,16.467329 39.403175,11.205901 
	C40.233814,10.528046 42.241219,9.979936 42.769958,10.441392 
	C50.603863,17.278402 58.279991,24.296198 65.996536,31.707279 
z"/>
<path fill="#000000" opacity="1.000000" stroke="none" 
	d="
M35.387897,65.593002 
	C35.054714,58.957245 35.054714,52.669689 35.054714,46.203350 
	C39.473576,46.203350 43.544617,46.203350 47.807564,46.203350 
	C47.807564,52.688793 47.807564,58.977352 47.807564,65.941200 
	C43.877438,65.941200 39.799259,65.941200 35.387897,65.593002 
z"/>
</svg>